<svg width="80" height="80" viewBox="0 0 80 80" fill="none" xmlns="http://www.w3.org/2000/svg">
<path d="M14.1667 1H65.8333C73.6667 1 80 7.33333 80 15.1667V64.8333C80 72.6667 73.6667 79 65.8333 79H14.1667C6.33333 79 0 72.6667 0 64.8333V15.1667C0 7.33333 6.33333 1 14.1667 1Z" fill="#330000"/>
<path d="M38.7667 47.8H26.3667L23.8333 55.6333C23.7667 55.9333 23.5 56.1333 23.2 56.1H16.9333C16.5667 56.1 16.4667 55.9 16.5667 55.5L27.3 24.6C27.4 24.2667 27.5 23.9 27.6333 23.5C27.7667 22.8 27.8333 22.0667 27.8333 21.3333C27.8 21.1667 27.9333 21 28.1 20.9667C28.1333 20.9667 28.1667 20.9667 28.2 20.9667H36.7333C37 20.9667 37.1333 21.0667 37.1667 21.2333L49.3333 55.5667C49.4333 55.9333 49.3333 56.1 49 56.1H42.0333C41.8 56.1333 41.5667 55.9667 41.5 55.7333L38.7667 47.8ZM28.3 41.0333H36.7667C36.5667 40.3333 36.3 39.5 36 38.6333C35.7 37.7333 35.4 36.7667 35.1 35.7667C34.7667 34.7333 34.4667 33.7333 34.1333 32.7C33.8 31.6667 33.5 30.7 33.2333 29.7333C32.9667 28.8 32.7333 27.9333 32.5 27.1333H32.4333C32.1333 28.5667 31.7667 30 31.3 31.4333C30.8 33.0333 30.3 34.7 29.7667 36.3667C29.3 38.0667 28.8 39.6333 28.3 41.0333Z" fill="#FF9A00"/>
<path d="M56.6 26.6667C55.5 26.7 54.4333 26.2667 53.6333 25.5C52.8667 24.6667 52.4667 23.5667 52.5 22.4333C52.4667 21.3 52.9 20.2333 53.7 19.4667C54.5 18.7 55.5667 18.3 56.6667 18.3C57.9667 18.3 58.9667 18.7 59.7 19.4667C60.4333 20.2667 60.8333 21.3333 60.8 22.4333C60.8333 23.5667 60.4333 24.6667 59.6333 25.5C58.8667 26.3 57.7333 26.7333 56.6 26.6667ZM52.8667 55.6V29.9333C52.8667 29.6 53 29.4667 53.3 29.4667H59.9C60.2 29.4667 60.3333 29.6333 60.3333 29.9333V55.6C60.3333 55.9667 60.2 56.1333 59.9 56.1333H53.3667C53.0333 56.1333 52.8667 55.9333 52.8667 55.6Z" fill="#FF9A00"/>
</svg>
