<?xml version="1.0" encoding="utf-8"?>
<!-- Generator: Adobe Illustrator 23.0.2, SVG Export Plug-In . SVG Version: 6.00 Build 0)  -->
<svg version="1.1" id="Layer_1" xmlns="http://www.w3.org/2000/svg" xmlns:xlink="http://www.w3.org/1999/xlink" x="0px" y="0px"
	 viewBox="0 0 50 50" style="enable-background:new 0 0 50 50;" xml:space="preserve">
<style type="text/css">
	.st0{fill:#FFFFFF;}
</style>
<path class="st0" d="M41.2,50H8.8C3.9,50,0,46.1,0,41.2V8.8C0,3.9,3.9,0,8.8,0h32.4C46.1,0,50,3.9,50,8.8v32.4
	C50,46.1,46.1,50,41.2,50z"/>
<g>
	<path d="M1.1,11.7c0.8,0,1.6,0,2.4,0.2c0.8,0,1.6,0,2.4,0c0.7,0,1.7,0,3,0s2.2,0,2.9,0c3.3,0,5.8,0.5,7.4,1.6s2.5,2.7,2.5,4.8
		s-0.7,3.6-1.9,4.8s-3.3,1.7-6,1.9c2.5,0.2,4.3,0.7,5.3,1.6c1.1,0.8,1.7,2.2,1.9,4.3c0,0.5,0.2,1.2,0.2,2.2c0.2,2.1,0.7,3.1,1.6,3.1
		c0.5,0,1-0.2,1.2-0.5c0.3-0.3,0.5-1,0.7-1.6l1,0.2c-0.2,1.4-0.7,2.5-1.4,3.3c-0.8,0.7-1.9,1.1-3.1,1.1c-1.6,0-2.7-0.5-3.3-1.2
		c-0.7-0.8-1.1-2.2-1.1-3.9c0-0.2,0-0.7,0-1c0-0.5,0-0.8,0-1c0-2.2-0.5-3.6-1.2-4.4c-0.8-0.8-2.4-1.1-4.8-1.1H8.8v7.9
		c0,1.4,0.2,2.2,0.5,2.5c0.3,0.3,1.1,0.5,2.5,0.5v1.1c-1.4,0-2.5-0.2-3.3-0.2c-0.8,0-1.4,0-1.9,0s-1.1,0-1.9,0s-2.1,0-3.4,0.2v-1.4
		c1.2,0,2.2-0.2,2.5-0.5s0.5-1.2,0.5-2.5V16.3c0-1.4-0.2-2.2-0.5-2.5c-0.4-0.4-1.3-0.6-2.6-0.6V11.7z M8.8,24.1c0.3,0,0.7,0,1,0
		s0.7,0,1.1,0c2.2,0,3.8-0.5,4.8-1.2c1-1,1.4-2.4,1.4-4.3c0-1.9-0.5-3.1-1.4-3.9c-1-0.8-2.4-1.2-4.4-1.2c-0.6,0-1.2,0-2.2,0
		c-0.2-0.2-0.3-0.2-0.3-0.2V24.1z"/>
	<path d="M44.6,13.7l0.5-1.7h1.1c0,0.8,0,1.6-0.2,2.2c0,0.7,0,1.2,0,1.7c0,1,0,2.2,0,4.1v0.3h-1.2c-0.2-2.4-1-4.3-2.2-5.5
		c-1.2-1.2-3-1.9-5.2-1.9c-2.9,0-4.9,1.1-6.3,3.1c-1.4,2.1-2.1,5.2-2.1,9.3c0,3.8,0.7,6.8,2.1,8.7c1.4,1.9,3.3,3,6,3
		c1.6,0,2.9-0.3,3.8-0.8s1.4-1.2,1.4-2.2v-3c0-1.2-1.1-1.9-3.4-2.1c-0.5,0-1,0-1.2,0v-1.4c1.2,0,2.4,0.2,3.3,0.2s1.9,0,2.7,0
		c0.5,0,1.1,0,1.9,0s1.9,0,3.3-0.2V29c-0.8,0-1.2,0.2-1.6,0.5c-0.3,0.2-0.5,0.7-0.5,1.1v6.3l-1.9-1.1c-1.1,1-2.4,1.6-3.6,2.1
		c-1.2,0.5-2.9,0.7-4.6,0.7c-3.9,0-7-1.1-9.1-3.4c-2.2-2.4-3.3-5.5-3.3-9.6c0-4.3,1.2-7.5,3.6-10.1s5.5-3.8,9.4-3.8
		c1.4,0,2.7,0.2,3.9,0.5C42.1,12.5,43.4,13.1,44.6,13.7z"/>
</g>
</svg>
