<svg width="107" height="45" viewBox="0 0 107 45" fill="none" xmlns="http://www.w3.org/2000/svg">
<path d="M0.137071 0.612183C0.64191 0.635601 1.15009 0.652328 1.65827 0.662365C2.16646 0.672401 2.68132 0.679092 3.20288 0.679092C3.63417 0.679092 4.25936 0.669056 5.08182 0.645637C5.90427 0.622219 6.51275 0.612183 6.90392 0.612183C9.00351 0.612183 10.5715 0.94673 11.6079 1.61917C12.6444 2.29161 13.1659 3.30864 13.1659 4.6669C13.1659 6.00509 12.7547 7.01542 11.9322 7.70459C11.1098 8.39041 9.82931 8.78853 8.09413 8.89558C9.66548 9.00264 10.7855 9.32046 11.4575 9.85239C12.1295 10.3843 12.5441 11.2843 12.7045 12.5555C12.7514 12.8867 12.7881 13.3518 12.8182 13.9506C12.8851 15.2955 13.2294 15.9679 13.848 15.9679C14.1656 15.9679 14.4163 15.8609 14.6069 15.6501C14.7941 15.4393 14.9345 15.0981 15.0248 14.6297L15.6701 14.7435C15.533 15.6735 15.2254 16.3593 14.7473 16.8043C14.2692 17.2492 13.5939 17.4734 12.7279 17.4734C11.7383 17.4734 11.0262 17.2158 10.5882 16.7039C10.1503 16.1921 9.93295 15.3457 9.93295 14.1681C9.93295 14.0242 9.93629 13.8168 9.94298 13.5458C9.94966 13.2748 9.95301 13.064 9.95301 12.9102C9.95301 11.4984 9.68554 10.5616 9.15396 10.1C8.62237 9.63828 7.6361 9.40744 6.19514 9.40744H5.00492V14.4156C5.00492 15.2854 5.11525 15.8274 5.33925 16.0415C5.56325 16.2556 6.08481 16.366 6.90726 16.366V17.2727C5.97782 17.2258 5.27238 17.1957 4.79095 17.1823C4.30951 17.1689 3.91835 17.1589 3.62414 17.1589C3.29984 17.1589 2.88527 17.1656 2.37708 17.1823C1.87225 17.1991 1.12335 17.2292 0.133728 17.2727V16.3593C0.972897 16.3593 1.50114 16.2489 1.72514 16.0248C1.94914 15.8006 2.05947 15.2654 2.05947 14.4089V3.47926C2.05947 2.61947 1.94914 2.08085 1.72514 1.87008C1.50448 1.65932 0.972897 1.54557 0.137071 1.52884V0.612183ZM5.01495 8.42722C5.19549 8.43391 5.37937 8.4406 5.56994 8.44394C5.75716 8.44729 5.98785 8.45063 6.262 8.45063C7.6361 8.45063 8.62906 8.16627 9.24088 7.60088C9.85271 7.0355 10.1569 6.12553 10.1569 4.87097C10.1569 3.71678 9.85605 2.86703 9.2576 2.32172C8.65581 1.77975 7.70965 1.50542 6.41914 1.50542C6.15502 1.50542 5.72707 1.52215 5.13865 1.55226C5.07847 1.55226 5.03167 1.55561 5.00158 1.5623L5.01495 8.42722Z" fill="black"/>
<path d="M23.6405 15.5999C23.0755 16.2724 22.4904 16.7508 21.892 17.0385C21.2935 17.3262 20.558 17.4701 19.6887 17.4701C18.8061 17.4701 18.104 17.2359 17.5891 16.7675C17.0709 16.2991 16.8135 15.6602 16.8135 14.8539C16.8135 13.954 17.1244 13.2615 17.7429 12.7697C18.3614 12.2779 19.7188 11.8129 21.8184 11.3746C22.0223 11.3278 22.2764 11.2809 22.5773 11.2274C23.2326 11.107 23.5636 10.9129 23.5636 10.6486V9.40077C23.5636 8.35698 23.4098 7.6444 23.0989 7.25967C22.788 6.87494 22.2564 6.6809 21.5041 6.6809C21.1497 6.6809 20.8121 6.73443 20.4978 6.84483C20.1802 6.95523 19.886 7.11581 19.6152 7.32658C19.6519 7.57749 19.6787 7.78825 19.6954 7.96222C19.7088 8.13618 19.7188 8.29677 19.7188 8.45066C19.7188 8.88222 19.5984 9.24019 19.3611 9.5279C19.1237 9.81561 18.8261 9.95947 18.4718 9.95947C18.1408 9.95947 17.8766 9.8591 17.6794 9.65503C17.4821 9.45096 17.3852 9.17663 17.3852 8.8287C17.3852 8.0492 17.8365 7.36672 18.7426 6.77792C19.6486 6.18912 20.7385 5.89471 22.0157 5.89471C23.4198 5.89471 24.4529 6.19915 25.1116 6.80803C25.7702 7.41691 26.1012 8.37371 26.1012 9.67845V9.74536L26.0778 13.8569V14.3655C26.0778 15.0847 26.1446 15.5397 26.275 15.7371C26.4054 15.9345 26.6428 16.0315 26.9838 16.0315C27.1877 16.0315 27.3716 15.9813 27.5388 15.8776C27.706 15.7773 27.8597 15.62 28.0035 15.4059L28.4916 15.7338C28.1807 16.2925 27.7862 16.7207 27.3081 17.0184C26.83 17.3162 26.3018 17.4667 25.7301 17.4667C25.0748 17.4667 24.58 17.3195 24.2523 17.0251C23.918 16.7341 23.7141 16.2557 23.6405 15.5999ZM23.5603 11.7694C21.8552 12.0939 20.7251 12.4452 20.1735 12.8165C19.6218 13.1912 19.3477 13.7298 19.3477 14.4324C19.3477 14.9911 19.4981 15.4394 19.7957 15.7806C20.0933 16.1218 20.4844 16.2891 20.9659 16.2891C21.4105 16.2891 21.8585 16.1419 22.3065 15.8475C22.7545 15.5531 23.1657 15.1349 23.5335 14.5896L23.5603 11.7694Z" fill="black"/>
<path d="M33.3528 0V8.51758C33.8877 7.64776 34.5162 6.99539 35.2317 6.55044C35.9472 6.10884 36.7462 5.88804 37.6222 5.88804C38.896 5.88804 39.8187 6.2159 40.3837 6.86826C40.9488 7.52063 41.2329 8.59453 41.2329 10.09V14.8941C41.2329 15.5966 41.3132 16.0215 41.4703 16.1687C41.6274 16.3159 42.0153 16.4196 42.6237 16.4798V17.2627C41.8013 17.2158 41.1928 17.1857 40.795 17.1723C40.3971 17.1589 40.0795 17.1489 39.8388 17.1489C39.5579 17.1489 39.1935 17.1556 38.7422 17.1723C38.2908 17.1891 37.6623 17.2192 36.8632 17.2627L36.8532 16.4698C37.6757 16.3928 38.1805 16.2858 38.3644 16.1419C38.5483 15.9981 38.6419 15.5832 38.6419 14.8941V9.88923C38.6419 8.89228 38.4948 8.18638 38.2072 7.77154C37.9164 7.3567 37.4416 7.14928 36.7863 7.14928C35.9271 7.14928 35.1381 7.52063 34.426 8.26667C33.7138 9.00937 33.3561 9.80559 33.3561 10.652V14.9008C33.3561 15.5966 33.4364 16.0181 33.5935 16.1653C33.7506 16.3125 34.1384 16.4163 34.7469 16.4765L34.7369 17.2693C33.7707 17.2158 33.1187 17.1857 32.7777 17.1723C32.4367 17.1623 32.1659 17.1556 31.962 17.1556C31.6811 17.1556 31.32 17.1623 30.8687 17.179C30.4207 17.1957 29.7654 17.2259 28.9028 17.2693V16.4765C29.7721 16.3995 30.297 16.2891 30.4809 16.1419C30.6648 15.9947 30.7584 15.5799 30.7584 14.9008V2.34518C30.7584 1.8099 30.6681 1.46197 30.4876 1.30139C30.307 1.14415 29.8222 1.04713 29.0399 1.01702V0.237529C29.5548 0.230838 30.1399 0.20742 30.8018 0.170619C31.4605 0.133819 32.313 0.076946 33.3528 0Z" fill="black"/>
<path d="M48.6384 5.89138V14.8974C48.6384 15.6301 48.7387 16.0683 48.9426 16.2122C49.1466 16.356 49.6414 16.443 50.4271 16.4731V17.266C49.4976 17.2192 48.7989 17.1891 48.3275 17.1757C47.8561 17.1623 47.4716 17.1523 47.1774 17.1523C46.8664 17.1523 46.4686 17.1589 45.9771 17.1757C45.4857 17.1924 44.7735 17.2225 43.8374 17.266V16.4731C44.8872 16.4196 45.5157 16.3192 45.7297 16.172C45.9403 16.0248 46.0473 15.6 46.0473 14.8974V8.40718C46.0406 7.52397 45.3118 7.07568 43.8608 7.05895H43.8374V6.25604C44.613 6.22593 45.4021 6.18244 46.2045 6.12556C47.0035 6.06534 47.8126 5.9884 48.6384 5.89138ZM47.1974 0.996948C47.6053 0.996948 47.9396 1.12073 48.2004 1.37164C48.4612 1.62255 48.5916 1.93703 48.5916 2.32176C48.5916 2.75332 48.4378 3.12133 48.1269 3.43246C47.8159 3.74358 47.4482 3.89748 47.0169 3.89748C46.6157 3.89748 46.288 3.77035 46.0306 3.51275C45.7732 3.25514 45.6461 2.93732 45.6461 2.56263C45.6461 2.14779 45.8033 1.78314 46.1209 1.46866C46.4418 1.15419 46.7996 0.996948 47.1974 0.996948Z" fill="black"/>
<path d="M53.4594 8.40722C53.4594 7.81841 53.3624 7.44706 53.1652 7.29652C52.9679 7.14597 52.4397 7.06568 51.5804 7.05899V6.24269C52.326 6.21927 53.0649 6.17913 53.787 6.12226C54.5125 6.06538 55.228 5.98844 55.9368 5.89142V8.49754C56.4483 7.64445 57.0434 6.99543 57.7187 6.55382C58.3941 6.11222 59.1363 5.89142 59.942 5.89142C60.8848 5.89142 61.6438 6.11891 62.2188 6.57055C62.7939 7.02219 63.1315 7.66452 63.2385 8.49754C63.7434 7.62772 64.3318 6.9787 65.0004 6.54379C65.6691 6.10887 66.418 5.89142 67.2471 5.89142C68.4106 5.89142 69.2632 6.21927 69.8115 6.87833C70.3598 7.53405 70.6339 8.56111 70.6339 9.95952V15.0112C70.6339 15.6602 70.7175 16.055 70.8847 16.1888C71.0518 16.326 71.4396 16.423 72.0515 16.4832V17.266C71.2056 17.2192 70.5904 17.1891 70.206 17.1757C69.8215 17.1623 69.5239 17.1523 69.3133 17.1523C69.0425 17.1523 68.6881 17.159 68.2501 17.1757C67.8122 17.1924 67.1769 17.2225 66.3478 17.266V16.4732C67.1636 16.4129 67.6617 16.3126 67.8423 16.1687C68.0228 16.0249 68.1131 15.6033 68.1131 14.9008V9.76548C68.1131 8.87558 67.9726 8.21987 67.6885 7.79834C67.4043 7.37681 66.9596 7.16939 66.3478 7.16939C65.6457 7.16939 65.0105 7.44372 64.4455 7.99572C63.8804 8.54773 63.5026 9.267 63.3121 10.1602V15.0078C63.3121 15.6569 63.3957 16.0516 63.5662 16.1921C63.7367 16.3327 64.1212 16.4297 64.7263 16.4799V17.2627C63.9339 17.2159 63.3388 17.1857 62.9376 17.1724C62.5364 17.159 62.2188 17.1489 61.9881 17.1489C61.7173 17.1489 61.3629 17.1556 60.925 17.1724C60.487 17.1891 59.8518 17.2192 59.0226 17.2627V16.4698C59.8384 16.4096 60.3365 16.3092 60.5171 16.1654C60.6976 16.0215 60.7879 15.6 60.7879 14.8974V9.76548C60.7879 8.87558 60.6475 8.21987 60.3633 7.79834C60.0791 7.38016 59.6345 7.16939 59.0226 7.16939C58.3205 7.16939 57.6853 7.44706 57.1203 8.00241C56.5553 8.55776 56.1842 9.27704 56.0103 10.1602V14.8941C56.0103 15.6033 56.0906 16.0282 56.2477 16.1687C56.4048 16.3092 56.7926 16.4096 57.4011 16.4698V17.2627C56.4717 17.2159 55.8231 17.1857 55.4553 17.1724C55.0842 17.159 54.8 17.1489 54.5961 17.1489C54.3387 17.1489 53.991 17.1556 53.553 17.1724C53.115 17.1891 52.4731 17.2192 51.6273 17.2627V16.4698C52.5166 16.3929 53.0448 16.2825 53.212 16.1353C53.3791 15.9881 53.4627 15.5732 53.4627 14.8941V8.40722H53.4594Z" fill="black"/>
<path d="M77.7084 5.8914V17.6608C77.7084 19.3001 77.3673 20.5178 76.6853 21.314C76.0033 22.1103 74.9635 22.5084 73.566 22.5084C72.6834 22.5084 71.9579 22.2876 71.3929 21.846C70.8278 21.4044 70.5437 20.8423 70.5437 20.1632C70.5437 19.7249 70.664 19.367 70.9014 19.0927C71.1388 18.8183 71.4397 18.6778 71.8007 18.6778C72.1551 18.6778 72.4427 18.7983 72.6667 19.0391C72.8907 19.28 73.001 19.5945 73.001 19.9792C73.001 20.2569 72.9208 20.5346 72.7569 20.8055C72.5931 21.0765 72.5129 21.2237 72.5129 21.2471C72.5129 21.3977 72.6132 21.5215 72.8138 21.6151C73.0144 21.7088 73.2785 21.7557 73.6128 21.7557C74.1778 21.7557 74.579 21.5717 74.8131 21.207C75.0471 20.839 75.1641 20.113 75.1641 19.0257L75.1206 8.40051C75.1206 7.79498 75.0137 7.42028 74.7997 7.27308C74.5857 7.12588 73.9338 7.05228 72.8472 7.05228V6.24937C73.6997 6.21926 74.5289 6.17577 75.3313 6.11889C76.1303 6.06537 76.926 5.98842 77.7084 5.8914ZM75.8094 1.02039C76.2239 1.02039 76.575 1.15755 76.8625 1.43522C77.15 1.70955 77.2938 2.0441 77.2938 2.43887C77.2938 2.8236 77.1567 3.14811 76.8792 3.4124C76.6051 3.67669 76.2607 3.81051 75.8562 3.81051C75.4516 3.81051 75.1039 3.67 74.8197 3.39233C74.5356 3.11465 74.3952 2.77342 74.3952 2.37196C74.3952 1.98723 74.5322 1.66606 74.803 1.40846C75.0705 1.14751 75.4082 1.02039 75.8094 1.02039Z" fill="black"/>
<path d="M85.7824 5.89142C87.4808 5.89142 88.8182 6.40997 89.7911 7.45041C90.764 8.49085 91.2521 9.90264 91.2521 11.6925C91.2521 13.3686 90.7339 14.7502 89.6941 15.8375C88.6577 16.9248 87.3538 17.4701 85.7824 17.4701C84.1075 17.4701 82.7768 16.9616 81.7905 15.9412C80.8043 14.9209 80.3128 13.5459 80.3128 11.8163C80.3128 10.0733 80.8277 8.64809 81.8574 7.54408C82.8905 6.44342 84.1977 5.89142 85.7824 5.89142ZM85.8059 6.70771C84.9366 6.70771 84.2679 7.13928 83.7965 8.00576C83.3251 8.87224 83.0877 10.1 83.0877 11.6925C83.0877 13.3016 83.3151 14.5361 83.7731 15.3959C84.2312 16.2557 84.8831 16.6873 85.739 16.6873C86.6149 16.6873 87.2869 16.2557 87.755 15.3959C88.2231 14.5361 88.4571 13.3016 88.4571 11.6925C88.4571 10.09 88.2297 8.85886 87.7717 7.99907C87.3137 7.13594 86.6584 6.70771 85.8059 6.70771Z" fill="black"/>
<path d="M94.2945 8.40722C94.2945 7.81841 94.1976 7.44706 94.0003 7.29652C93.8031 7.14597 93.2748 7.06568 92.4156 7.05899V6.24269C93.1545 6.21927 93.89 6.17913 94.6222 6.12226C95.3543 6.06538 96.0798 5.98844 96.7953 5.89142V8.56445C97.2935 7.68125 97.9053 7.0155 98.6341 6.56386C99.363 6.11557 100.195 5.89142 101.132 5.89142C102.362 5.89142 103.265 6.22262 103.836 6.88837C104.411 7.55412 104.696 8.60795 104.696 10.0498V14.8974C104.696 15.6067 104.776 16.0316 104.933 16.1721C105.09 16.3126 105.478 16.4129 106.086 16.4732V17.266C105.264 17.2192 104.652 17.1891 104.251 17.1757C103.85 17.1623 103.532 17.1523 103.301 17.1523C103.024 17.1523 102.656 17.1623 102.201 17.1791C101.75 17.1958 101.118 17.2259 100.309 17.266V16.4732C101.148 16.3962 101.65 16.2892 101.82 16.1453C101.991 16.0014 102.074 15.5866 102.074 14.8974V9.88926C102.074 8.899 101.921 8.19645 101.61 7.77492C101.299 7.35339 100.791 7.14597 100.082 7.14597C99.3028 7.14597 98.5773 7.50059 97.8953 8.20983C97.2166 8.91908 96.8756 9.64839 96.8756 10.3978V14.8941C96.8756 15.59 96.9558 16.0115 97.1129 16.1587C97.2701 16.3059 97.6646 16.4096 98.2898 16.4698V17.2627C97.4907 17.2159 96.8822 17.1857 96.4677 17.1724C96.0531 17.159 95.7255 17.1489 95.4814 17.1489C95.1939 17.1489 94.8261 17.1556 94.3781 17.1724C93.9301 17.1891 93.2848 17.2192 92.449 17.2627V16.4698C93.325 16.3929 93.8499 16.2825 94.0237 16.1353C94.1976 15.9881 94.2845 15.5732 94.2845 14.8941V8.40722H94.2945Z" fill="black"/>
<path d="M13.0757 24.3015L13.3364 23.2143H14.0486C14.0252 23.7596 14.0084 24.238 13.9984 24.6528C13.9884 25.0677 13.9817 25.439 13.9817 25.7635C13.9817 26.3289 13.9951 27.1954 14.0285 28.3563V28.5503H13.2595C13.1392 27.0314 12.6711 25.8639 11.8554 25.0442C11.0396 24.2246 9.94967 23.8164 8.58226 23.8164C6.81699 23.8164 5.4897 24.4688 4.60373 25.7702C3.71775 27.0716 3.27309 29.0287 3.27309 31.6315C3.27309 34.0636 3.69769 35.897 4.55358 37.1314C5.40612 38.3659 6.66989 38.9848 8.34488 38.9848C9.37796 38.9848 10.1837 38.8243 10.7554 38.5031C11.3271 38.1819 11.6146 37.7269 11.6146 37.1381V35.2111C11.6146 34.425 10.8724 34.0034 9.38465 33.9432C9.03695 33.9265 8.76948 33.9164 8.58226 33.9098V33.0265C9.37462 33.0633 10.0801 33.0935 10.6952 33.1102C11.3104 33.1303 11.8754 33.1369 12.3869 33.1369C12.6979 33.1369 13.0957 33.1303 13.5805 33.1135C14.0653 33.0968 14.7807 33.0667 15.7269 33.0232L15.7135 33.9098C15.2221 33.9466 14.8877 34.0369 14.7105 34.1774C14.5333 34.3179 14.4431 34.5621 14.4431 34.9067V38.9414L13.2094 38.2723C12.4906 38.8544 11.7149 39.2792 10.8758 39.5536C10.0366 39.8246 9.06035 39.9617 7.94369 39.9617C5.46964 39.9617 3.52384 39.2291 2.11297 37.7637C0.705437 36.2951 0 34.2744 0 31.6984C0 29.032 0.752243 26.8976 2.25339 25.2918C3.75453 23.686 5.74714 22.8831 8.23121 22.8831C9.09044 22.8831 9.91958 22.9968 10.7119 23.2276C11.5043 23.4618 12.29 23.8198 13.0757 24.3015Z" fill="black"/>
<path d="M23.4466 38.0883C22.8816 38.7607 22.2965 39.2391 21.698 39.5268C21.0996 39.8146 20.3641 39.9584 19.4948 39.9584C18.6122 39.9584 17.9101 39.7242 17.3952 39.2559C16.877 38.7875 16.6196 38.1485 16.6196 37.3422C16.6196 36.4423 16.9305 35.7498 17.549 35.258C18.1675 34.7662 19.5249 34.3012 21.6245 33.8629C21.8284 33.8195 22.0825 33.7693 22.3834 33.7157C23.0387 33.5953 23.3697 33.4013 23.3697 33.137V31.8891C23.3697 30.8453 23.2159 30.1327 22.905 29.748C22.5941 29.3633 22.0625 29.1692 21.3102 29.1692C20.9558 29.1692 20.6182 29.2228 20.3039 29.3332C19.9863 29.4436 19.6921 29.6042 19.4213 29.8149C19.458 30.0658 19.4848 30.2766 19.5015 30.4506C19.5149 30.6245 19.5249 30.7885 19.5249 30.939C19.5249 31.3706 19.4045 31.7285 19.1672 32.0162C18.9298 32.304 18.6322 32.4478 18.2778 32.4478C17.9469 32.4478 17.6827 32.3474 17.4855 32.1434C17.2882 31.9393 17.1913 31.665 17.1913 31.317C17.1913 30.5375 17.6426 29.8551 18.5487 29.2663C19.4547 28.6775 20.5446 28.3831 21.8217 28.3831C23.2259 28.3831 24.259 28.6875 24.9176 29.2964C25.5796 29.9052 25.9073 30.8621 25.9073 32.1668V32.2337L25.8839 36.3453V36.8538C25.8839 37.5731 25.9507 38.0281 26.0811 38.2254C26.2115 38.4228 26.4489 38.5198 26.7899 38.5198C26.9938 38.5198 27.1777 38.4697 27.3449 38.366C27.5121 38.2622 27.6658 38.1084 27.8096 37.8942L28.2977 38.2221C27.9868 38.7808 27.5923 39.209 27.1142 39.5068C26.6361 39.8045 26.1079 39.9551 25.5362 39.9551C24.8809 39.9551 24.3861 39.8079 24.0584 39.5135C23.7241 39.2224 23.5235 38.7473 23.4466 38.0883ZM23.3697 34.2611C21.6646 34.5856 20.5346 34.9335 19.9829 35.3082C19.4313 35.6829 19.1571 36.2215 19.1571 36.9241C19.1571 37.4828 19.3076 37.931 19.6051 38.2723C19.9027 38.6135 20.2939 38.7808 20.7753 38.7808C21.22 38.7808 21.668 38.6336 22.116 38.3392C22.564 38.0448 22.9752 37.6266 23.343 37.0813L23.3697 34.2611Z" fill="black"/>
<path d="M28.9597 28.6172H38.6285V28.7309L31.9285 38.9614H34.8272C36.1478 38.9614 37.0003 38.7908 37.3848 38.4529C37.7693 38.115 37.9699 37.4325 37.9833 36.4121H38.6285V39.7543H28.4749V39.6405L35.1983 29.4101H32.3665C31.2799 29.4101 30.5678 29.5506 30.2335 29.8349C29.8992 30.1193 29.6986 30.678 29.6384 31.5177H28.9597V28.6172Z" fill="black"/>
<path d="M44.1784 28.3797V37.3857C44.1784 38.1183 44.2787 38.5566 44.4827 38.7005C44.6866 38.8443 45.1814 38.9313 45.9671 38.9614V39.7543C45.0377 39.7074 44.3389 39.6773 43.8675 39.664C43.3961 39.6506 43.0116 39.6405 42.7174 39.6405C42.4065 39.6405 42.0086 39.6472 41.5172 39.664C41.0257 39.6807 40.3136 39.7108 39.3774 39.7543V38.9614C40.4272 38.9079 41.0558 38.8075 41.2698 38.6603C41.4804 38.5131 41.5874 38.0882 41.5874 37.3857V30.8955C41.5807 30.0123 40.8518 29.564 39.4008 29.5472H39.3774V28.7443C40.1531 28.7142 40.9421 28.6707 41.7445 28.6138C42.5435 28.557 43.356 28.48 44.1784 28.3797ZM42.7408 23.4852C43.1487 23.4852 43.483 23.609 43.7438 23.8599C44.0046 24.1108 44.135 24.4253 44.135 24.81C44.135 25.2416 43.9812 25.6096 43.6702 25.9207C43.3593 26.2319 42.9916 26.3858 42.5603 26.3858C42.1591 26.3858 41.8314 26.2586 41.574 26.001C41.3166 25.7434 41.1895 25.4256 41.1895 25.0509C41.1895 24.6361 41.3466 24.2714 41.6643 23.9569C41.9819 23.6425 42.3396 23.4852 42.7408 23.4852Z" fill="black"/>
<path d="M46.0239 28.6172C46.4987 28.6473 46.9567 28.6707 47.3947 28.6841C47.8326 28.7008 48.2506 28.7075 48.6518 28.7075C49.1198 28.7075 49.5946 28.7008 50.0793 28.6841C50.5608 28.6707 51.0522 28.6473 51.5504 28.6172V29.4101C51.099 29.4101 50.7747 29.4569 50.5808 29.5506C50.3869 29.6442 50.2933 29.8048 50.2933 30.0323C50.2933 30.1227 50.31 30.2331 50.3435 30.3669C50.3769 30.5007 50.4404 30.6747 50.5307 30.8955L52.8409 36.5259C53.777 34.0703 54.3721 32.4544 54.6229 31.6716C54.877 30.8888 55.0007 30.3602 55.0007 30.0792C55.0007 29.845 54.8937 29.6777 54.6831 29.574C54.4724 29.4736 54.098 29.4134 53.5631 29.4V28.6172C53.9241 28.6473 54.2718 28.6707 54.5995 28.6841C54.9271 28.7008 55.2381 28.7075 55.5323 28.7075C55.783 28.7075 56.0639 28.7008 56.3815 28.6841C56.6991 28.6707 57.0334 28.6473 57.3878 28.6172V29.4C57.0267 29.4134 56.7359 29.5104 56.5219 29.6877C56.3079 29.865 56.1173 30.1728 55.9502 30.6111L52.1455 40.6375C51.4969 42.3604 50.9051 43.5179 50.3669 44.1101C49.8319 44.7022 49.1633 45 48.3642 45C47.8962 45 47.5117 44.8829 47.2141 44.6487C46.9166 44.4145 46.7661 44.1201 46.7661 43.7655C46.7661 43.4477 46.8865 43.18 47.1272 42.9626C47.3679 42.7418 47.6655 42.6347 48.0232 42.6347C48.401 42.6347 48.7353 42.7819 49.0262 43.0763C49.3171 43.3707 49.521 43.5179 49.6447 43.5179C49.8955 43.5179 50.1897 43.18 50.534 42.5043C50.8784 41.8285 51.2361 40.8583 51.6139 39.597L47.6956 30.8285C47.6789 30.7984 47.6621 30.7583 47.6387 30.7048C47.291 29.9253 46.7528 29.497 46.0206 29.4134V28.6172H46.0239Z" fill="black"/>
<path d="M60.1092 33.8195C60.1159 35.4219 60.4269 36.6363 61.0387 37.466C61.6505 38.2957 62.5365 38.7139 63.6999 38.7139C64.5224 38.7139 65.2345 38.5098 65.833 38.1017C66.4314 37.6935 66.8861 37.1014 67.197 36.3219L67.8523 36.5259C67.5113 37.6601 66.9195 38.5132 66.0737 39.0919C65.2278 39.6707 64.1413 39.9584 62.814 39.9584C61.0989 39.9584 59.7582 39.4499 58.7819 38.4362C57.809 37.4192 57.3209 36.0141 57.3209 34.2176C57.3209 32.4645 57.8291 31.0561 58.8421 29.9855C59.8585 28.915 61.1958 28.3831 62.8541 28.3831C64.402 28.3831 65.619 28.8447 66.5117 29.7647C67.401 30.6847 67.849 31.9527 67.849 33.5585V33.7291L60.1092 33.8195ZM60.0959 33.0232L65.4853 32.8861C65.4853 31.685 65.2646 30.7684 64.8233 30.1394C64.382 29.5105 63.7434 29.1927 62.9042 29.1927C62.0818 29.1927 61.4198 29.5339 60.9183 30.213C60.4135 30.8955 60.1427 31.8322 60.0959 33.0232Z" fill="black"/>
<path d="M68.2702 28.6172C68.7918 28.6473 69.2732 28.6707 69.7145 28.6841C70.1558 28.7008 70.5236 28.7075 70.8178 28.7075C71.3226 28.7075 71.8241 28.7008 72.3223 28.6841C72.8204 28.6707 73.3152 28.6473 73.8067 28.6172V29.4C73.2016 29.4301 72.8137 29.4837 72.6366 29.564C72.4594 29.6442 72.3724 29.7848 72.3724 29.9888C72.3724 30.0658 72.3825 30.1528 72.4059 30.2565C72.4293 30.3568 72.4727 30.5007 72.5429 30.6813L74.9769 37.2987L77.5011 30.6613C77.5378 30.5542 77.5679 30.4472 77.5846 30.3334C77.6047 30.2197 77.6114 30.1059 77.6114 29.9922C77.6114 29.7881 77.5312 29.6476 77.3673 29.5673C77.2069 29.487 76.8357 29.4335 76.264 29.4034V28.6205C76.6051 28.6506 76.9327 28.6741 77.2503 28.6874C77.5679 28.7042 77.8655 28.7109 78.1463 28.7109C78.4238 28.7109 78.718 28.7042 79.0256 28.6874C79.3298 28.6741 79.6508 28.6506 79.9818 28.6205V29.4134C79.5672 29.4134 79.2563 29.4837 79.049 29.6242C78.8417 29.7647 78.6445 30.0792 78.4539 30.5709L76.02 36.7233C75.9832 36.8136 75.923 36.9675 75.8394 37.1883C75.4182 38.2923 75.027 39.2157 74.6726 39.965L73.3921 39.8279L69.641 30.407L69.6176 30.3602C69.3668 29.7245 68.9489 29.4101 68.3605 29.4101H68.2702V28.6172Z" fill="black"/>
<path d="M79.136 38.4362C79.3767 38.4362 79.5706 38.5164 79.7177 38.677C79.8648 38.8376 79.9384 39.0517 79.9384 39.3194C79.9384 39.587 79.8648 39.8011 79.7177 39.9684C79.5706 40.1357 79.3733 40.216 79.136 40.216C78.8986 40.216 78.698 40.1323 78.5475 39.9684C78.3937 39.8045 78.3202 39.587 78.3202 39.3194C78.3202 39.0618 78.3971 38.851 78.5509 38.6837C78.7047 38.5164 78.8986 38.4362 79.136 38.4362Z" fill="#666666"/>
<path d="M86.9426 38.1585L87.2903 38.3124C87.0596 38.9581 86.6985 39.4432 86.2137 39.7643C85.729 40.0888 85.1238 40.2494 84.3983 40.2494C83.4422 40.2494 82.6832 39.9717 82.1249 39.4131C81.5666 38.8544 81.2891 38.0949 81.2891 37.1381C81.2891 36.0943 81.5966 35.2546 82.2152 34.619C82.8337 33.9833 83.6528 33.6655 84.6758 33.6655C85.3712 33.6655 85.953 33.8428 86.4177 34.2008C86.8824 34.5588 87.1164 34.9836 87.1164 35.4754C87.1164 35.6996 87.0596 35.8735 86.9459 36.0007C86.8323 36.1278 86.6751 36.1914 86.4712 36.1914C86.2672 36.1914 86.1034 36.1178 85.9697 35.9672C85.836 35.8167 85.7691 35.6293 85.7691 35.3985C85.7691 35.278 85.7958 35.1476 85.8493 35.0071C85.9028 34.8666 85.9296 34.7762 85.9296 34.7327C85.9296 34.5956 85.8126 34.4618 85.5819 34.3346C85.3512 34.2075 85.067 34.1406 84.7394 34.1406C84.1643 34.1406 83.7063 34.3948 83.3719 34.9C83.0343 35.4085 82.8671 36.101 82.8671 36.9809C82.8671 37.7838 83.041 38.4027 83.3853 38.8376C83.7297 39.2725 84.2245 39.49 84.8631 39.49C85.3478 39.49 85.7657 39.3796 86.1168 39.1555C86.4645 38.9346 86.7386 38.6001 86.9426 38.1585Z" fill="#666666"/>
<path d="M91.0448 33.6655C92.011 33.6655 92.7699 33.9599 93.3249 34.5521C93.8799 35.1442 94.1541 35.9471 94.1541 36.9642C94.1541 37.9176 93.8599 38.7038 93.2681 39.3227C92.6763 39.9416 91.9375 40.2494 91.0415 40.2494C90.0886 40.2494 89.3297 39.9584 88.7714 39.3796C88.2097 38.8008 87.9322 38.018 87.9322 37.0344C87.9322 36.0408 88.2264 35.2312 88.8115 34.6056C89.3999 33.98 90.1421 33.6655 91.0448 33.6655ZM91.0582 34.1305C90.5634 34.1305 90.1822 34.3781 89.9148 34.8699C89.6473 35.3617 89.5102 36.0609 89.5102 36.9675C89.5102 37.8842 89.6406 38.5867 89.9014 39.0752C90.1622 39.5636 90.5333 39.8112 91.018 39.8112C91.5162 39.8112 91.8973 39.5669 92.1648 39.0752C92.4323 38.5834 92.566 37.8842 92.566 36.9675C92.566 36.0575 92.4356 35.355 92.1748 34.8666C91.9141 34.3781 91.5429 34.1305 91.0582 34.1305Z" fill="#666666"/>
<path d="M95.6251 35.0974C95.6251 34.7628 95.5683 34.5521 95.458 34.4651C95.3476 34.3781 95.0467 34.3346 94.5553 34.3279V33.8629C94.9799 33.8495 95.3978 33.8261 95.8123 33.796C96.2269 33.7659 96.6315 33.7191 97.036 33.6655V35.1476C97.3269 34.6625 97.6645 34.2945 98.049 34.0436C98.4335 33.7927 98.8548 33.6655 99.3161 33.6655C99.8544 33.6655 100.286 33.7927 100.61 34.0536C100.938 34.3112 101.128 34.6759 101.188 35.1509C101.476 34.6558 101.81 34.2878 102.191 34.0402C102.573 33.7927 102.997 33.6689 103.469 33.6689C104.13 33.6689 104.615 33.8562 104.926 34.2309C105.237 34.6056 105.394 35.1877 105.394 35.9839V38.8577C105.394 39.2257 105.441 39.4499 105.535 39.5268C105.628 39.6037 105.849 39.6606 106.197 39.6941V40.139C105.715 40.1123 105.364 40.0955 105.147 40.0888C104.926 40.0788 104.759 40.0755 104.639 40.0755C104.485 40.0755 104.281 40.0788 104.034 40.0888C103.783 40.0989 103.425 40.1156 102.95 40.139V39.6874C103.415 39.6539 103.696 39.5937 103.8 39.5134C103.903 39.4331 103.953 39.1923 103.953 38.7908V35.8702C103.953 35.365 103.873 34.9903 103.713 34.7528C103.552 34.5153 103.298 34.3948 102.95 34.3948C102.552 34.3948 102.191 34.5521 101.867 34.8666C101.546 35.181 101.329 35.5892 101.222 36.0977V38.8577C101.222 39.2257 101.269 39.4532 101.366 39.5301C101.463 39.6071 101.683 39.664 102.024 39.6941V40.139C101.573 40.1123 101.235 40.0955 101.008 40.0888C100.78 40.0788 100.6 40.0755 100.466 40.0755C100.312 40.0755 100.108 40.0788 99.8611 40.0888C99.6103 40.0989 99.2526 40.1156 98.7779 40.139V39.6874C99.2426 39.6539 99.5268 39.5937 99.6271 39.5134C99.7307 39.4331 99.7809 39.1923 99.7809 38.7908V35.8702C99.7809 35.365 99.7006 34.9903 99.5401 34.7528C99.3797 34.5153 99.1256 34.3948 98.7779 34.3948C98.38 34.3948 98.0189 34.5521 97.6946 34.8699C97.3737 35.1844 97.163 35.5959 97.0627 36.0977V38.7908C97.0627 39.1956 97.1062 39.4365 97.1965 39.5168C97.2867 39.5971 97.5041 39.6539 97.8518 39.6874V40.139C97.3235 40.1123 96.9558 40.0955 96.7451 40.0888C96.5345 40.0788 96.3707 40.0755 96.257 40.0755C96.1099 40.0755 95.9127 40.0788 95.6652 40.0888C95.4145 40.0989 95.0501 40.1156 94.5686 40.139V39.6874C95.0768 39.6439 95.3744 39.5803 95.4713 39.4967C95.5649 39.4131 95.6118 39.1789 95.6118 38.7908V35.0974H95.6251Z" fill="#666666"/>
</svg>
