<svg width="80" height="80" viewBox="0 0 80 80" fill="none" xmlns="http://www.w3.org/2000/svg">
<g clip-path="url(#clip0)">
<path d="M79.9627 14.9277C79.9398 7.29449 73.5436 1.00829 65.9375 1.00369C48.6959 0.995406 31.4543 1.00277 14.2128 1.00921C13.6669 1.00921 13.1147 1.01565 12.5762 1.09478C4.97286 2.20719 0.0190842 7.94409 0.00992578 15.7154C-0.00839101 31.9691 0.00443074 48.222 0.0035149 64.4757C0.0035149 65.5771 0.0584652 66.6739 0.278267 67.755C1.685 74.6641 7.35404 79.3245 14.3776 79.33C22.9297 79.3374 31.4827 79.3319 40.0348 79.3319C48.5192 79.3328 57.0026 79.3328 65.4869 79.3319C65.6234 79.3319 65.7608 79.3309 65.8972 79.33C73.5811 79.2831 79.9435 73.0309 79.9645 65.336C80.0112 48.5348 80.0131 31.7308 79.9627 14.9277ZM76.6125 63.7461C76.608 70.8218 71.4848 75.9587 64.4392 75.9661C56.2653 75.9744 48.0906 75.9679 39.9167 75.9679C39.9167 75.9661 39.9167 75.9643 39.9167 75.9624C31.8454 75.9624 23.7732 75.9643 15.7019 75.9615C8.55928 75.9597 3.45898 71.0518 3.40128 63.8804C3.31153 52.7498 3.36739 41.6193 3.36464 30.4877C3.36373 25.9185 3.45348 21.3474 3.35365 16.7808C3.19521 9.55336 8.93936 4.24616 15.9812 4.30781C32.2264 4.44859 48.4725 4.34461 64.7185 4.36209C70.5149 4.36854 75.2727 8.30477 76.4092 13.9837C76.5493 14.6857 76.6098 15.4154 76.6107 16.1312C76.6199 32.0032 76.6226 47.8751 76.6125 63.7461Z" fill="#25D2FD"/>
<path d="M39.9165 75.9624C31.8452 75.9624 23.773 75.9643 15.7017 75.9615C8.55908 75.9597 3.45877 71.0518 3.40107 63.8804C3.31132 52.7498 3.36719 41.6193 3.36444 30.4877C3.36353 25.9185 3.45328 21.3473 3.35345 16.7808C3.19501 9.55335 8.93915 4.24615 15.981 4.3078C32.2262 4.44857 48.4723 4.3446 64.7183 4.36208C70.5147 4.36853 75.2725 8.30476 76.409 13.9837C76.5491 14.6857 76.6096 15.4154 76.6105 16.1312C76.6206 32.0032 76.6224 47.8751 76.6132 63.7461C76.6087 70.8218 71.4855 75.9587 64.4399 75.9661C56.266 75.9744 48.0913 75.9679 39.9174 75.9679C39.9165 75.9661 39.9165 75.9643 39.9165 75.9624Z" fill="#032831"/>
<path d="M44.7365 51.769C44.7402 51.2639 44.743 50.7587 44.7466 50.2536C44.7503 49.6546 44.6578 48.7133 45.526 49.2396C47.5335 50.4579 49.7205 51.0467 52.066 50.9842C52.6064 50.9694 53.165 50.9105 53.6797 50.7523C55.7248 50.1266 56.2267 48.1005 54.7201 46.5851C53.6413 45.5003 52.2785 44.8369 50.9414 44.1532C49.9962 43.6693 49.0804 43.1457 48.2122 42.532C45.5654 40.6614 44.3638 38.1026 44.8217 34.8905C45.3034 31.5082 47.3961 29.4195 50.5851 28.5067C53.5149 27.6685 56.4639 27.9262 59.3772 28.7662C60.347 29.0459 60.2783 29.7921 60.2783 30.6524C60.2783 31.7796 60.2783 32.9067 60.2793 34.0339C60.2793 34.1627 60.2774 34.2979 60.217 34.4111C60.043 34.7368 59.6015 34.5151 59.3735 34.3964C57.6719 33.5131 55.8393 33.1588 53.9343 33.1552C53.5945 33.1542 53.2493 33.18 52.915 33.238C51.772 33.4358 50.7829 33.8949 50.4972 35.1417C50.2178 36.3599 50.9285 37.1503 51.8389 37.8063C53.1769 38.7697 54.6881 39.423 56.1149 40.2262C57.6746 41.1049 59.1509 42.106 60.1803 43.6168C63.0945 47.8935 61.0531 53.9018 56.0719 55.559C52.6357 56.7017 49.2049 56.3871 45.8218 55.1964C44.8327 54.8477 44.7237 54.0757 44.7301 53.1197C44.731 52.6689 44.7338 52.2189 44.7365 51.769Z" fill="#E0F7FF"/>
<path d="M31.1666 18.91C27.6461 18.5879 24.1311 18.8566 20.6134 18.9026C19.6316 18.9155 19.3266 19.2182 19.334 20.2073C19.3743 25.9424 19.3532 31.6775 19.3532 37.4134C19.3532 43.1835 19.3669 48.9525 19.3367 54.7226C19.3321 55.5801 19.714 55.6868 20.4696 55.6703C21.5292 55.6482 22.5916 55.6721 23.6512 55.673C24.5973 55.674 25.3116 55.7954 25.297 54.6416C25.2475 50.8645 25.2924 47.0856 25.2631 43.3086C25.2576 42.6277 25.4499 42.4207 26.1304 42.4529C27.2889 42.509 28.4566 42.5283 29.6124 42.4483C35.7275 42.025 41.1245 38.7421 41.5422 31.1005C41.9158 24.2788 37.953 19.5301 31.1666 18.91ZM28.9842 37.0988C27.9951 37.142 27.0023 37.085 26.0132 37.1236C25.4316 37.1466 25.2558 36.9359 25.2659 36.3571C25.2979 34.4359 25.2778 32.5148 25.2778 30.5926C25.2778 28.7055 25.2787 26.8183 25.2768 24.9312C25.2759 24.5411 25.2494 24.1712 25.8181 24.1528C27.6599 24.0948 29.5053 23.9476 31.3131 24.4721C33.4663 25.0959 34.8217 26.4751 35.3291 28.6917C36.4144 33.4349 33.8235 36.8871 28.9842 37.0988Z" fill="#E0F7FF"/>
</g>
<defs>
<clipPath id="clip0">
<rect width="80" height="80" fill="white"/>
</clipPath>
</defs>
</svg>
